<?xml version="1.0"?>
<svg xmlns:rdf="http://www.w3.org/1999/02/22-rdf-syntax-ns#" xmlns="http://www.w3.org/2000/svg" xmlns:cc="http://creativecommons.org/ns#" xmlns:xlink="http://www.w3.org/1999/xlink" xmlns:dc="http://purl.org/dc/elements/1.1/" xmlns:svg="http://www.w3.org/2000/svg" id="svg2" viewBox="0 0 57.231 62.838" version="1.0">
  <defs id="defs4">
    <linearGradient id="linearGradient4867">
      <stop id="stop4869" stop-color="#a18930" offset="0"/>
      <stop id="stop4871" stop-color="#e3c565" offset=".66667"/>
      <stop id="stop4873" stop-color="#fffbcc" offset="1"/>
    </linearGradient>
    <linearGradient id="linearGradient3113" y2="67.469" xlink:href="#linearGradient4867" spreadMethod="reflect" gradientUnits="userSpaceOnUse" x2="45.681" gradientTransform="translate(-4.0795 -1.5222)" y1="54.347" x1="36.311"/>
    <linearGradient id="linearGradient3115" y2="74.704" xlink:href="#linearGradient4867" spreadMethod="reflect" gradientUnits="userSpaceOnUse" x2="68.138" gradientTransform="translate(-16.889 -27.14)" y1="65.935" x1="61.794"/>
  </defs>
  <g id="layer1" transform="translate(-351.47 -23.465)">
    <path id="text2160" d="m407.7 79.396c-0.63 0.633-2.63 1.518-5.98 2.655-2.56 0.878-4.7 1.529-6.41 1.951-3.51 0.867-7.25 1.3-11.24 1.3-5.77 0-11.06-1.289-15.85-3.867-4.95-2.672-8.83-6.451-11.66-11.338-2.74-4.711-4.1-9.843-4.09-15.398 0-8.285 2.93-15.393 8.79-21.322 2.75-2.789 5.97-4.963 9.65-6.522 3.74-1.582 7.67-2.379 11.81-2.39 9.14 0 16.87 2.806 23.19 8.42l-8.86 11.091c-0.98-1.148-2.31-2.238-4.01-3.269-1.19-0.703-2.66-1.319-4.43-1.846-1.9-0.562-3.92-0.826-6.05-0.791-2.55 0.047-5.02 0.873-7.4 2.479-2.33 1.57-4.18 3.597-5.55 6.082-1.4 2.519-2.1 5.162-2.1 7.927 0 6.762 2.75 11.69 8.23 14.784 2.59 1.476 5.52 2.214 8.77 2.214 0.72 0 2.17-0.181 4.34-0.545 2.37-0.386 3.68-0.709 3.94-0.966v-8.649h-14.9l4.25-11.953h25.56v29.953z" stroke="url(#linearGradient3115)" stroke-width="2" fill="url(#linearGradient3113)"/>
  </g>
  <metadata>
    <rdf:RDF>
      <cc:Work>
        <dc:format>image/svg+xml</dc:format>
        <dc:type rdf:resource="http://purl.org/dc/dcmitype/StillImage"/>
        <cc:license rdf:resource="http://creativecommons.org/licenses/publicdomain/"/>
        <dc:publisher>
          <cc:Agent rdf:about="http://openclipart.org/">
            <dc:title>Openclipart</dc:title>
          </cc:Agent>
        </dc:publisher>
        <dc:title>Effect Letters alphabet gold</dc:title>
        <dc:date>2007-07-28T18:37:01</dc:date>
        <dc:description>Note! Filling and outline were copied by &#x201C;style copy&#x201D; by the letter A. Thus if this is changed, all marked elements change themselves as well!</dc:description>
        <dc:source>http://openclipart.org/detail/14952/effect-letters-alphabet-gold-by-chrisdesign-14952</dc:source>
        <dc:creator>
          <cc:Agent>
            <dc:title>Chrisdesign</dc:title>
          </cc:Agent>
        </dc:creator>
        <dc:subject>
          <rdf:Bag>
            <rdf:li>abc</rdf:li>
            <rdf:li>alphabet</rdf:li>
            <rdf:li>clip art</rdf:li>
            <rdf:li>clipart</rdf:li>
            <rdf:li>gold</rdf:li>
            <rdf:li>gradient</rdf:li>
            <rdf:li>image</rdf:li>
            <rdf:li>letter</rdf:li>
            <rdf:li>media</rdf:li>
            <rdf:li>png</rdf:li>
            <rdf:li>public domain</rdf:li>
            <rdf:li>svg</rdf:li>
          </rdf:Bag>
        </dc:subject>
      </cc:Work>
      <cc:License rdf:about="http://creativecommons.org/licenses/publicdomain/">
        <cc:permits rdf:resource="http://creativecommons.org/ns#Reproduction"/>
        <cc:permits rdf:resource="http://creativecommons.org/ns#Distribution"/>
        <cc:permits rdf:resource="http://creativecommons.org/ns#DerivativeWorks"/>
      </cc:License>
    </rdf:RDF>
  </metadata>
</svg>
